/* XPM */
static char *c8dad34275734d87e562485664d01b99MoniU0YuHdZ7ryyn[] = {
/* columns rows colors chars-per-pixel */
"64 64 7 1 ",
"  c #4A6020",
". c #4E6722",
"X c #657D24",
"o c #6A7C27",
"O c #466F4A",
"+ c #68892D",
"@ c #4C8140",
/* pixels */
".   ..               .. ..                  .. .               .",
".. ..                                                          .",
".. ..                                                          .",
"..        .    .             ..    ...              OOO  OO     ",
"          ..  ..   +++   +    ..  ...     X          OO OO      ",
"          ..@ ..    +++ ++    ... ..XX  XXX     ..   .  OO      ",
"      @   @@@        ++ ++     ..    XX XX       .. ..          ",
"      @@@ @@                         XX          ..             ",
" .     @@         .   ..              ..   ...                  ",
"..                .. ..                .. ...               ..  ",
"..   .     .       . ..                   ..                 .. ",
".    ...  ..                                                 .. ",
"      .. ...                                                 .. ",
"         ..                ...   ..                             ",
"                            ... ..                              ",
"                    .        .. ..        ...   .               ",
"              ..  ...                      ... ..               ",
"               .. ..                        ..             .    ",
"                .                                    ..   ..    ",
"  ...     .                     . @@@   @             .. ...    ",
"   .... ...             XXX.   ..  @@@ @@              . ..     ",
"    ... ..         X   XXX... ...   @@ @ ..                     ",
"                .  XXX XX  .. ..    ... ..              o       ",
"                ..  XX.              .. ..             oo       ",
"                ... ..                            ooo ooo       ",
"         +++     ..                                oo oo        ",
"    +++ +++                                   .    ..       .   ",
"     ++ ++                                    ... ...       ..  ",
"...                                ..   ..     .. ..        ... ",
"..                                  .. ..                    .. ",
"                         .    .     .. ..                       ",
"          ....   ...     ..  ..                                 ",
"           .... ...      ... ..                                 ",
"             .. ..        ..                                    ",
"  ...                                                        .  ",
" ...                                                .        .. ",
" ..                                         ...    ..         ..",
"                       .                     .... ...         ..",
"                ....  ..         +            ... ..            ",
"          @@    @@... ..         ++  +++                        ",
"           @@@ @@  ..       .    +++ ++                    OOO  ",
"           @@@ @@           ...  .++                 OOO  OOO   ",
"     .    . @@               ... ..                   OOO OO    ",
"     ..  ..                   ..       .    ..         OO ...   ",
"     ... ..                            ..  ..        ..  ...    ",
"      ..                               ... ..         .. ..     ",
"                                        ..            ..        ",
"                  .                                             ",
"                  ...                                           ",
"                  ...  ...                                      ",
"                   .. ...                   .                   ",
"                      ..          +         @@@  ..             ",
" +   .++                  . +   +++    @@  @@@. ..        o     ",
" +++ ++   .         X     ..+++ ++.     @@ @@.. .. ooo  ooo     ",
"  ++ ++. .. XXX   XXX      ..++...      @@   ..     ooo oo     .",
"      ..     XXX XXX        .. ..                    oo .     ..",
"              XX XX                                     ...  ...",
"           ...   ...                .    ...             ... .. ",
"            ... ...                 ..  ...               ..    ",
"             .. ..                  ... ..                      ",
"                                     ..                         ",
"                          .                                     ",
"     .             ...   ..               ...   ..              ",
"    ..              ... ...                ... ..              ."
};
