/* XPM */
static char *ed1b132f94114c74f0311e9e6adc0882e7UG7AvV1VlwpmLe[] = {
/* columns rows colors chars-per-pixel */
"64 64 27 1 ",
"  c black",
". c #0A0908",
"X c #0F0D0B",
"o c #161210",
"O c #171411",
"+ c #1C1714",
"@ c #1C1815",
"# c #211C1A",
"$ c #241F1B",
"% c #27211E",
"& c #29231E",
"* c #29241F",
"= c #2B2421",
"- c #2E2622",
"; c #2E2822",
": c #302A24",
"> c #352B27",
", c #382E2A",
"< c #38312A",
"1 c #3B312C",
"2 c #423731",
"3 c #423A31",
"4 c #453832",
"5 c #453C34",
"6 c #4D3F39",
"7 c #4D4339",
"8 c #594941",
/* pixels */
"55775<<55577777777777775555557777775<<55555555<<<<5557777755<<<5",
"5775<<<5577777777777775555<557777775<<<<<<<<<<<<<5555777555<<<55",
"777<<<57777777777777775555<<557777775<<<<<<<<<<5555577755<<<5557",
"77<<<<777777777777777775555<<<57777775555555555555577755<<555777",
"75<<<77777777777777777775555<<<<77777777777::::::3333::$<5577777",
"7<<<5777777777555555577777755<<<<533333333333333333::$$$::377777",
"5<<<77777775<<<<<<<<<55577777:$$$$:33333333333333:::$$$::3333777",
"<<<577777<<<<<<<<<<<<<$::333333:$$$$:3333333333::$$$$$::33333377",
"<<<77755<<<<<<<555:::$$$:::33333:$$$$$$::::::::$$$$$::333333333<",
"<<7775<<<<<<57777333:::$$:::33333:$$$$$$$$$$$$$$$$:::333333333:<",
"<5775<<<<<777733333333::$$:::3333333:$$$$$$$$$$:::33333333333::$",
"5775<<<5777733333333333:::$$::33333333::::::::::333333333333::$$",
"5755<<557733::::::::3333:::$$$:33333333333333333333333333333:$$:",
"355<<557333::$$$:::::3333:$$$$$33333333333333333333333333333$$$:",
":$$$:::333::$$$$$:::3333:$$$$$:33333333333333333333333333333$$$3",
"$$$:::3333:$$$$:333<<<****$$$:33333333333333333333333333333:$$@:",
"$$::3333333:$$:<<<<<:*****$::::::$$$$$:::33333333<<<<<<<<<:$$@$:",
"$$:333333333<<<<<<******&*:$$$$$$$$$$$$$$$$:333<<<<<<<<<<<**$$::",
"$$:3333333<<<<<::****&&:****$$$$$$$$$$$$$$$$$$:<<<<<<<<<<:&&*<::",
"$$::3333<<<<:::****&&:*******:::::3333::$$$$$***:<<<<<<<<&&&*<<:",
":$::::3<:::::******&*****:::<<<<<333333333::********::::&&&*<<<:",
"::*:::::::******::*&&*:::<<<<<<<<<<<<<<<<<<<<:*******::&&&&<<<<:",
":::**********::&*****::<<<<<<<<:::::::<<<<<<<<<::****$$@@@;<<<<<",
"<::::****:::*&&***OO;;;;;;$:::::::::****::<<<<<<<;;$;;$OOO;;;;<<",
"<<:::::::**:*OO@OO;;;;;;$$$$OOO***************:;;;;;$OOOO$;;;;;;",
";;<<<<::::*OOOO$;;;;;;;$$OOOOOO$$:::::*******OOOOOOOOOOO$;;;;;;;",
";;;;$$$$OOOOO$;;;;;;;$$OOOO$$$$$$$$$$;;$$OOOOOOOOOOOOOO$;;;;;;;;",
";$$$$OOOOO$$;;;;;;;;$$OOO$$$$;;;;;;;;;;;;;;;;$OOOOOOO$;;;;;;;;;;",
"$$OOOOO$$$$;;;;;;$$..XX...$$$$;;;;;;;;;;;;;;;;;;;;;;;;;;;;;;;;;;",
"XXXXO$$$$;;;;;$$$$$XXX..$$$$$$$$$;;;;;;;;;;;;;;;;;;;;;$$$$$$$$$X",
"XX....$$;;;;$$$$$$..X..$$$$$$$$$$$$$;;;;;;;;;;;;;;$$$$$$$$$$$.XX",
"...$$$$$$$;$$$$$$.....$$$$$$$$$$$$$$$$$$$;;;;;;;;;$$$$$$$$$$...X",
"                                                                ",
"88888888444888888884>>>>>>888888884>>4444>4444488888888888888888",
"888888884444888888844>>>>4488884444>>48444>444444888888888888888",
"888888888444>44888884444448844444>>>4488444>>4444488888888888888",
"88888888884>>>>4448888888844444>>>444888844444>>>>>8888888888888",
"444444888884>>>>>44444444444>>>>4444886666111111--->>>>444444444",
"44444444488844>>>>>>>>>>>>>>>44444866666666611111---->>>>>444444",
">>>>>444448888444>>>>>>>>>444448866666666666666666---->>>>>>>>>>",
"44444>>444666666611111144444888866666666666666666666664444444444",
"44444411-1166666666666666688886666666666666666666666666884444444",
"88861111--116666666666666666666666666666666666666666666668888888",
"666666111-116666666666666666666666666666666666666666666666666886",
"666666611-111666666666666666666666666666666666666666666666666666",
"6666666111111666666666666666666666666666222666666666666666666666",
"6666666111111666666666666666666666666622222266666666666666666666",
"2222666111-11:22222666666666666666662222222226666666666666666662",
"22222226111->:222222266666666611111:::>>>>2222666666666666666222",
"22222222211%%::::::>::11111111----%%:::>>>>>:2266666666666662222",
"2222222222::%%%%%%%%%%%---------%%%%&&%&&>::::226666666666622222",
"22222222222:::%%&%%%%%%%%-----%:::::>:::>%%%%%%%2266666662222222",
"222222222222::::::::::::::::::22222:>:::::::%%%%&&:2266222222222",
"2222222222222222222222222222222222222222:::::%%%&&&::22222222222",
"2,,,,,,,,,,,,,,22222222222222222222222222222222%%%%%:::222222222",
"==,,,,,,,,,,,,,,,,2222222222222222222222222222222:%%%%:::::::::=",
"====,,,,,,,,,,,,,,,,222222222222222222222,,,,,,,,,==###%%%%%%###",
"##===,,,,,,,,,,,,,,,,,22222222:::::::=======,,,,,,,===##########",
"=###=,,,,,,,,,,,,,,,,,,==::::::%%%#######=====,,,,,,,===========",
"==#++$$---,,,,,,,,,,,====#####################===,,,,,,,,,,,,,,=",
",$$++++$$-----,=======#########==-=========###+++$$$---------,,,",
"---$++++$$----$$$$$=####========,,,,,,,,,$$$$$++++$$$-----------",
"----$+o+o$----$$$$$++=====,,,,,,,,,,,,,------$$$$++$---------$--",
"                                                                "
};
